<svg width="228" height="210" viewBox="0 0 228 210" fill="none" xmlns="http://www.w3.org/2000/svg">
<path d="M225.066 82.4119H224.986L179.141 102.005L116.415 128.813C116.17 128.916 115.907 128.97 115.641 128.971C115.375 128.973 115.112 128.922 114.865 128.821L50.1507 101.949L3.17897 82.4438L3.10722 82.4119H3.02727C2.28612 82.4127 1.57556 82.7077 1.05149 83.2323C0.527416 83.7568 0.232634 84.468 0.231812 85.2098L0.231812 206.719C0.232635 207.46 0.527416 208.172 1.05149 208.696C1.57556 209.221 2.28612 209.516 3.02727 209.516H225.066C225.807 209.516 226.518 209.221 227.042 208.696C227.566 208.172 227.861 207.46 227.862 206.719V85.2098C227.861 84.468 227.566 83.7568 227.042 83.2323C226.518 82.7077 225.807 82.4127 225.066 82.4119V82.4119Z" fill="white"/>
<path d="M225.865 83.2112C225.783 83.2113 225.704 83.1863 225.637 83.1396L115.193 6.15597C114.857 5.92278 114.457 5.79816 114.048 5.79886C113.639 5.79956 113.24 5.92554 112.905 6.15987L3.2566 83.1388C3.21366 83.169 3.1652 83.1904 3.114 83.2018C3.0628 83.2132 3.00985 83.2144 2.95818 83.2053C2.90652 83.1962 2.85715 83.1771 2.81289 83.1489C2.76863 83.1207 2.73035 83.0841 2.70023 83.0411C2.67011 82.9981 2.64874 82.9496 2.63734 82.8984C2.62595 82.8471 2.62475 82.7941 2.63382 82.7424C2.64289 82.6907 2.66204 82.6413 2.69019 82.597C2.71834 82.5527 2.75493 82.5144 2.79787 82.4842L112.446 5.50528C112.916 5.17727 113.474 5.00095 114.047 5C114.62 4.99906 115.179 5.17355 115.649 5.50001L226.093 82.4834C226.163 82.5321 226.215 82.6018 226.243 82.6823C226.27 82.7629 226.271 82.8501 226.246 82.9313C226.22 83.0125 226.17 83.0834 226.101 83.1338C226.033 83.1841 225.95 83.2113 225.865 83.2112L225.865 83.2112Z" fill="#3F3D56"/>
<path d="M9.5224 85.94L114.157 8.32507L219.585 91.4627L119.548 150.818L65.2362 138.427L9.5224 85.94Z" fill="#E6E6E6"/>
<path d="M69.8209 187.48H18.1288C17.8114 187.48 17.497 187.418 17.2036 187.296C16.9103 187.175 16.6437 186.997 16.4191 186.773C16.1945 186.548 16.0163 186.282 15.8948 185.988C15.7732 185.695 15.7107 185.38 15.7107 185.062C15.7107 184.745 15.7732 184.43 15.8948 184.137C16.0163 183.843 16.1945 183.577 16.4191 183.352C16.6437 183.128 16.9103 182.95 17.2036 182.828C17.497 182.707 17.8114 182.645 18.1288 182.645H69.8209C70.1383 182.645 70.4526 182.707 70.746 182.828C71.0394 182.95 71.306 183.128 71.5305 183.352C71.7551 183.577 71.9333 183.843 72.0549 184.137C72.1764 184.43 72.239 184.745 72.239 185.062C72.239 185.38 72.1764 185.695 72.0549 185.988C71.9333 186.282 71.7551 186.548 71.5305 186.773C71.306 186.997 71.0394 187.175 70.746 187.296C70.4526 187.418 70.1383 187.48 69.8209 187.48V187.48Z" fill="#00A19D"/>
<path d="M36.6748 177.087H18.1288C17.8114 177.088 17.497 177.026 17.2036 176.904C16.9103 176.783 16.6437 176.605 16.4191 176.381C16.1945 176.156 16.0163 175.889 15.8948 175.596C15.7732 175.303 15.7107 174.988 15.7107 174.67C15.7107 174.353 15.7732 174.038 15.8948 173.745C16.0163 173.451 16.1945 173.185 16.4191 172.96C16.6437 172.736 16.9103 172.558 17.2036 172.436C17.497 172.315 17.8114 172.253 18.1288 172.253H36.6748C36.9922 172.253 37.3065 172.315 37.5999 172.436C37.8933 172.558 38.1599 172.736 38.3845 172.96C38.609 173.185 38.7872 173.451 38.9088 173.745C39.0303 174.038 39.0929 174.353 39.0929 174.67C39.0929 174.988 39.0303 175.303 38.9088 175.596C38.7872 175.889 38.609 176.156 38.3845 176.381C38.1599 176.605 37.8933 176.783 37.5999 176.904C37.3065 177.026 36.9922 177.088 36.6748 177.087Z" fill="#00A19D"/>
<path d="M115.628 129.171C115.235 129.171 114.846 129.095 114.482 128.946L49.951 102.147L49.951 18.2599C49.9519 17.5182 50.2467 16.807 50.7708 16.2825C51.2948 15.758 52.0054 15.4629 52.7465 15.462L176.545 15.462C177.286 15.4629 177.997 15.758 178.521 16.2825C179.045 16.807 179.34 17.5182 179.341 18.2599V102.205L179.219 102.257L116.809 128.933C116.435 129.09 116.034 129.171 115.628 129.171V129.171Z" fill="white"/>
<path d="M115.628 129.37C115.209 129.371 114.794 129.29 114.406 129.131L49.7514 102.28L49.7514 18.26C49.7523 17.4652 50.0681 16.7032 50.6296 16.1412C51.1911 15.5792 51.9524 15.2631 52.7465 15.2622L176.545 15.2622C177.339 15.2631 178.101 15.5792 178.662 16.1412C179.224 16.7032 179.539 17.4652 179.54 18.26V102.337L116.887 129.117C116.489 129.284 116.061 129.371 115.628 129.37V129.37ZM50.5501 101.746L114.711 128.392C115.309 128.635 115.98 128.631 116.575 128.381L178.742 101.809V18.26C178.741 17.6771 178.509 17.1184 178.098 16.7063C177.686 16.2941 177.128 16.0623 176.545 16.0616L52.7465 16.0616C52.1642 16.0623 51.6059 16.2941 51.1942 16.7063C50.7824 17.1184 50.5508 17.6771 50.5501 18.26L50.5501 101.746Z" fill="#3F3D56"/>
<path d="M225.066 82.4119H224.986L179.141 102.005L116.415 128.813C116.17 128.916 115.907 128.97 115.641 128.971C115.375 128.973 115.112 128.922 114.865 128.821L50.1507 101.949L3.17897 82.4438L3.10722 82.4119H3.02727C2.28612 82.4127 1.57556 82.7077 1.05149 83.2323C0.527416 83.7568 0.232634 84.468 0.231812 85.2098L0.231812 206.719C0.232635 207.46 0.527416 208.172 1.05149 208.696C1.57556 209.221 2.28612 209.516 3.02727 209.516H225.066C225.807 209.516 226.518 209.221 227.042 208.696C227.566 208.172 227.861 207.46 227.862 206.719V85.2098C227.861 84.468 227.566 83.7568 227.042 83.2323C226.518 82.7077 225.807 82.4127 225.066 82.4119V82.4119ZM227.063 206.719C227.063 207.249 226.852 207.757 226.478 208.132C226.104 208.506 225.596 208.717 225.066 208.717H3.02727C2.49776 208.717 1.99 208.506 1.61558 208.132C1.24117 207.757 1.03072 207.249 1.03051 206.719L1.03051 85.2098C1.03124 84.693 1.23153 84.1964 1.58952 83.824C1.9475 83.4515 2.43547 83.232 2.95141 83.2113L50.1507 102.813L114.558 129.56C115.255 129.844 116.036 129.84 116.731 129.548L179.141 102.873L225.146 83.2113C225.661 83.2335 226.148 83.4537 226.505 83.8259C226.862 84.1981 227.062 84.6938 227.063 85.2098V206.719Z" fill="#3F3D56"/>
<path d="M105.582 46.8191H61.6532C60.8059 46.8191 59.9933 46.4823 59.3942 45.8826C58.795 45.2829 58.4584 44.4696 58.4584 43.6215C58.4584 42.7735 58.795 41.9602 59.3942 41.3605C59.9933 40.7608 60.8059 40.424 61.6532 40.424H105.582C106.429 40.424 107.242 40.7608 107.841 41.3605C108.44 41.9602 108.777 42.7735 108.777 43.6215C108.777 44.4696 108.44 45.2829 107.841 45.8826C107.242 46.4823 106.429 46.8191 105.582 46.8191Z" fill="#00A19D"/>
<path d="M82.8188 33.2293H61.6532C60.8059 33.2293 59.9933 32.8924 59.3942 32.2928C58.795 31.6931 58.4584 30.8798 58.4584 30.0317C58.4584 29.1837 58.795 28.3703 59.3942 27.7707C59.9933 27.171 60.8059 26.8341 61.6532 26.8341H82.8188C83.6661 26.8341 84.4788 27.171 85.0779 27.7707C85.677 28.3703 86.0136 29.1837 86.0136 30.0317C86.0136 30.8798 85.677 31.6931 85.0779 32.2928C84.4788 32.8924 83.6661 33.2293 82.8188 33.2293Z" fill="#00A19D"/>
<path d="M147.501 78.7951H80.4102C79.5629 78.7951 78.7502 78.4582 78.1511 77.8585C77.552 77.2589 77.2154 76.4456 77.2154 75.5975C77.2154 74.7494 77.552 73.9361 78.1511 73.3365C78.7502 72.7368 79.5629 72.3999 80.4102 72.3999H147.501C148.348 72.3999 149.161 72.7368 149.76 73.3365C150.359 73.9361 150.696 74.7494 150.696 75.5975C150.696 76.4456 150.359 77.2589 149.76 77.8585C149.161 78.4582 148.348 78.7951 147.501 78.7951Z" fill="#CCCCCC"/>
<path d="M147.501 93.5839H80.4102C79.5629 93.5839 78.7502 93.247 78.1511 92.6474C77.552 92.0477 77.2154 91.2344 77.2154 90.3863C77.2154 89.5383 77.552 88.7249 78.1511 88.1253C78.7502 87.5256 79.5629 87.1887 80.4102 87.1887H147.501C148.348 87.1887 149.161 87.5256 149.76 88.1253C150.359 88.7249 150.696 89.5383 150.696 90.3863C150.696 91.2344 150.359 92.0477 149.76 92.6474C149.161 93.247 148.348 93.5839 147.501 93.5839Z" fill="#CCCCCC"/>
</svg>
