<svg width="32" height="32" viewBox="0 0 32 32" fill="none" xmlns="http://www.w3.org/2000/svg">
<g clip-path="url(#clip0)">
<path d="M24.5508 0H6.46073C2.89311 0 0 2.89311 0 6.46073V24.5508C0 28.1184 2.89311 31.0115 6.46073 31.0115H24.5508C28.1197 31.0115 31.0115 28.1184 31.0115 24.5508V6.46073C31.0115 2.89311 28.1197 0 24.5508 0ZM10.3372 24.5508H6.46073V10.3372H10.3372V24.5508ZM8.39895 8.69872C7.15073 8.69872 6.13769 7.67793 6.13769 6.41938C6.13769 5.16083 7.15073 4.14003 8.39895 4.14003C9.64716 4.14003 10.6602 5.16083 10.6602 6.41938C10.6602 7.67793 9.64845 8.69872 8.39895 8.69872ZM25.8429 24.5508H21.9665V17.3096C21.9665 12.9576 16.7979 13.2871 16.7979 17.3096V24.5508H12.9215V10.3372H16.7979V12.6178C18.6017 9.27631 25.8429 9.02951 25.8429 15.8172V24.5508Z" fill="black"/>
</g>
<defs>
<clipPath id="clip0">
<rect width="31.0115" height="31.0115" fill="white"/>
</clipPath>
</defs>
</svg>
